Coordinates
version=1
nRows=22
nColumns=24
inDegrees=yes

Units are S.I. units (second, meters, Newtons, ...)
Angles are in degrees.

endheader
time	pelvis_tilt	pelvis_list	pelvis_rotation	pelvis_tx	pelvis_ty	pelvis_tz	hip_flexion_r	hip_adduction_r	hip_rotation_r	knee_angle_r	ankle_angle_r	subtalar_angle_r	mtp_angle_r	hip_flexion_l	hip_adduction_l	hip_rotation_l	knee_angle_l	ankle_angle_l	subtalar_angle_l	mtp_angle_l	lumbar_extension	lumbar_bending	lumbar_rotation
      6.27000000	      3.70159602	     -5.27829885	      1.84314342	     -0.77512100	      0.91714186	      0.18547122	    -15.35340992	     10.70407194	     -1.87889122	    -16.56711045	     15.00335577	      2.51628667	      0.00000000	     14.46544948	     -0.59423875	     10.19304433	     -5.21430099	      4.27386595	     -9.29725670	      0.00000000	    -17.49800883	      5.53382762	      3.96287112
      6.28000000	      3.84894493	     -4.86175777	      2.02816415	     -0.76333835	      0.91821586	      0.18397066	    -14.72139021	     10.04683975	     -3.05717624	    -19.25877728	     13.35978986	      2.84389984	      0.00000000	     13.92239208	      0.11186361	     11.25056301	     -5.83799162	      3.54832888	    -10.39407159	      0.00000000	    -17.36990921	      5.10365799	      3.73718457
      6.29000000	      4.00262724	     -4.45879909	      2.25827007	     -0.75168414	      0.91945045	      0.18243707	    -13.89407533	      9.34769535	     -4.37624597	    -22.20888827	     11.23257702	      2.96360609	      0.00000000	     13.39881990	      0.78002384	     11.90592810	     -6.51034916	      3.03736252	    -10.94842647	      0.00000000	    -17.25990434	      4.69818580	      3.48489933
      6.30000000	      4.20914855	     -4.05555701	      2.45293577	     -0.74021726	      0.92085423	      0.18097977	    -12.94777245	      8.57654813	     -5.62746310	    -25.36279280	      8.56864984	      3.01664191	      0.00000000	     12.85053641	      1.39115934	     12.01043817	     -7.24796595	      2.61123196	    -11.10435535	      0.00000000	    -17.26258008	      4.27169177	      3.24567350
      6.31000000	      4.35017307	     -3.70406797	      2.62557062	     -0.72898762	      0.92213015	      0.17955601	    -11.73854868	      7.77206777	     -6.85165256	    -28.72490640	      5.51950375	      3.00061948	      0.00000000	     12.36319149	      1.89621976	     11.93835924	     -7.95898257	      2.24199371	    -11.20841406	      0.00000000	    -17.22508724	      3.90314280	      3.03976739
      6.32000000	      4.37560804	     -3.41879774	      2.69088474	     -0.71805581	      0.92316858	      0.17832714	    -10.23796251	      6.98232762	     -7.75495749	    -32.22151024	      2.05028455	      2.62051264	      0.00000000	     12.01593795	      2.25589499	     11.47915088	     -8.66748777	      1.99630987	    -11.13492989	      0.00000000	    -17.10765574	      3.58175524	      2.94933414
      6.33000000	      4.41850301	     -3.16244992	      2.65355795	     -0.70743793	      0.92413921	      0.17731514	     -8.62368301	      6.18120496	     -8.38719962	    -35.77545440	     -1.56608464	      2.23392744	      0.00000000	     11.68117563	      2.48783297	     10.40899935	     -9.37940818	      1.97136040	    -10.41821443	      0.00000000	    -17.10840530	      3.26687771	      2.93678211
      6.34000000	      4.36042159	     -2.90603852	      2.49025062	     -0.69712163	      0.92482122	      0.17652710	     -6.76665699	      5.35230715	     -8.73244144	    -39.39439784	     -4.94171451	      1.91824564	      0.00000000	     11.43856699	      2.65766184	      9.13727660	    -10.02496184	      1.97267391	     -9.75635777	      0.00000000	    -17.06513902	      2.91713944	      2.98404421
      6.35000000	      4.25115401	     -2.63616467	      2.19366196	     -0.68709083	      0.92531019	      0.17598631	     -4.76145657	      4.51147739	     -8.80001574	    -42.99172209	     -7.80199967	      1.69571198	      0.00000000	     11.23130973	      2.78892674	      7.68115603	    -10.61184678	      2.13065591	     -8.99332477	      0.00000000	    -17.05240778	      2.51960574	      3.10567532
      6.36000000	      4.07741858	     -2.37510295	      1.80298450	     -0.67731049	      0.92561050	      0.17563275	     -2.62430935	      3.71944113	     -8.63318676	    -46.50303197	     -9.94837640	      1.52228410	      0.00000000	     11.04534756	      2.90171200	      6.36246504	    -11.10882625	      2.41657466	     -8.42365866	      0.00000000	    -17.02843867	      2.12066594	      3.29611376
      6.37000000	      3.96793364	     -2.06027836	      1.39764487	     -0.66772722	      0.92595906	      0.17538950	     -0.55098536	      2.92283978	     -8.38106237	    -49.83582699	    -11.15967695	      1.34279549	      0.00000000	     10.77412168	      3.06289168	      4.92422971	    -11.57254737	      2.98911821	     -7.50235230	      0.00000000	    -17.14783535	      1.65657355	      3.36234846
      6.38000000	      3.80275897	     -1.79261927	      0.99548091	     -0.65830978	      0.92625969	      0.17517930	      1.56628650	      2.24394183	     -8.05923048	    -52.92820197	    -11.54124345	      1.03992052	      0.00000000	     10.47467876	      3.22766536	      3.95840171	    -11.88912767	      3.56723400	     -7.02334067	      0.00000000	    -17.22984452	      1.26844829	      3.42568116
      6.39000000	      3.71151983	     -1.54445825	      0.65821378	     -0.64898250	      0.92676732	      0.17495611	      3.52992517	      1.65942213	     -7.75698106	    -55.68447961	    -11.09243392	      0.44960122	      0.00000000	     10.02326272	      3.40854491	      3.17560282	    -12.08077280	      4.29844645	     -6.42087585	      0.00000000	    -17.41799666	      0.92795071	      3.34118460
      6.40000000	      3.66794874	     -1.35478972	      0.38289919	     -0.63971987	      0.92749956	      0.17467112	      5.35279653	      1.18685297	     -7.51520137	    -58.06461295	    -10.09639903	     -0.45262013	      0.00000000	      9.40165201	      3.58911387	      2.79926671	    -12.05499422	      4.82826696	     -6.29723087	      0.00000000	    -17.66810034	      0.68251843	      3.16923796
      6.41000000	      3.60323959	     -1.28519295	      0.21147034	     -0.63050820	      0.92838490	      0.17425932	      7.08941416	      0.88088095	     -7.39298551	    -60.02894000	     -8.68397537	     -1.66238501	      0.00000000	      8.74873332	      3.68843093	      2.67572307	    -11.93521467	      5.43440758	     -6.13863014	      0.00000000	    -17.86974520	      0.63445296	      2.94916898
      6.42000000	      3.57084670	     -1.32834041	      0.11020671	     -0.62133762	      0.92951072	      0.17379664	      8.67682509	      0.72436922	     -7.37268787	    -61.56050745	     -7.11903884	     -3.11414660	      0.00000000	      7.98682609	      3.69702254	      2.76728303	    -11.67631137	      5.96776972	     -6.10934266	      0.00000000	    -18.10247782	      0.72967030	      2.71586945
      6.43000000	      3.47773644	     -1.48947032	      0.04732869	     -0.61216959	      0.93072205	      0.17330926	     10.21813033	      0.71848771	     -7.42569425	    -62.66882429	     -5.56724395	     -4.74819052	      0.00000000	      7.23852064	      3.59096992	      2.93353040	    -11.31102620	      6.40804570	     -6.18034595	      0.00000000	    -18.22573004	      0.97964986	      2.50489596
      6.44000000	      3.33649676	     -1.76050356	     -0.01149733	     -0.60304273	      0.93199194	      0.17284921	     11.71001872	      0.87460872	     -7.48138589	    -63.36838830	     -4.21334750	     -6.52582159	      0.00000000	      6.51070900	      3.37069784	      3.20233894	    -10.88146857	      6.71300295	     -6.37422183	      0.00000000	    -18.27635226	      1.36750984	      2.33180616
      6.45000000	      3.18580365	     -2.09944259	     -0.07538409	     -0.59389687	      0.93331059	      0.17243148	     13.10441652	      1.12493297	     -7.56196695	    -63.67901966	     -3.02001751	     -8.24961323	      0.00000000	      5.76750681	      3.06949820	      3.46227516	    -10.39809199	      6.96623646	     -6.63200976	      0.00000000	    -18.29428240	      1.82852316	      2.23892412
      6.46000000	      3.00754332	     -2.48455878	     -0.16229846	     -0.58476057	      0.93460126	      0.17209290	     14.42882560	      1.45698228	     -7.62783141	    -63.62550135	     -1.99927679	     -9.84378638	      0.00000000	      5.05619294	      2.70317790	      3.65405255	     -9.91053738	      7.17292533	     -6.87705651	      0.00000000	    -18.27811620	      2.32796831	      2.21218608
      6.47000000	      2.81349575	     -2.87699090	     -0.25216556	     -0.57561811	      0.93582545	      0.17181664	     15.66637264	      1.83104396	     -7.67666724	    -63.22514335	     -1.14464600	    -11.32025046	      0.00000000	      4.37561087	      2.31455520	      3.76288170	     -9.43967133	      7.33924727	     -7.08409196	      0.00000000	    -18.24282905	      2.82959268	      2.22377761
      6.48000000	      2.61384630	     -3.28644231	     -0.33840881	     -0.56648645	      0.93696495	      0.17161892	     16.80545982	      2.26177348	     -7.70798559	    -62.48790588	     -0.40635044	    -12.58984510	      0.00000000	      3.72959656	      1.89153595	      3.77321440	     -9.01343803	      7.54922319	     -7.18740282	      0.00000000	    -18.20683714	      3.33361877	      2.24347407
